<svg width="12" height="9" viewBox="0 0 12 9" fill="none" xmlns="http://www.w3.org/2000/svg">
<path d="M10.9091 0.264706C10.3036 0.0794118 9.63818 0 9 0C7.93636 0 6.79091 0.211765 6 0.794118C5.20909 0.211765 4.06364 0 3 0C1.93636 0 0.790909 0.211765 0 0.794118V8.55C0 8.68235 0.136364 8.81471 0.272727 8.81471C0.327273 8.81471 0.354545 8.78824 0.409091 8.78824C1.14545 8.44412 2.20909 8.20588 3 8.20588C4.06364 8.20588 5.20909 8.41765 6 9C6.73636 8.55 8.07273 8.20588 9 8.20588C9.9 8.20588 10.8273 8.36471 11.5909 8.76176C11.6455 8.78824 11.6727 8.78824 11.7273 8.78824C11.8636 8.78824 12 8.65588 12 8.52353V0.794118C11.6727 0.555882 11.3182 0.397059 10.9091 0.264706ZM10.9091 7.41177C10.3091 7.22647 9.65455 7.14706 9 7.14706C8.07273 7.14706 6.73636 7.49118 6 7.94118V1.85294C6.73636 1.40294 8.07273 1.05882 9 1.05882C9.65455 1.05882 10.3091 1.13824 10.9091 1.32353V7.41177Z" fill="white"/>
</svg>
