<svg width="13" height="8" viewBox="0 0 13 8" fill="none" xmlns="http://www.w3.org/2000/svg">
<path d="M11.8182 0V8H13V0H11.8182ZM9.45455 8H10.6364V0H9.45455V8ZM7.68182 0H0.590909C0.265909 0 0 0.257143 0 0.571429V7.42857C0 7.74286 0.265909 8 0.590909 8H7.68182C8.00682 8 8.27273 7.74286 8.27273 7.42857V0.571429C8.27273 0.257143 8.00682 0 7.68182 0ZM4.13636 1.57143C4.86909 1.57143 5.46591 2.14857 5.46591 2.85714C5.46591 3.56571 4.86909 4.14286 4.13636 4.14286C3.40364 4.14286 2.80682 3.56571 2.80682 2.85714C2.80682 2.14857 3.40364 1.57143 4.13636 1.57143ZM6.79545 6.85714H1.47727V6.42857C1.47727 5.57143 3.25 5.14286 4.13636 5.14286C5.02273 5.14286 6.79545 5.57143 6.79545 6.42857V6.85714Z" fill="white"/>
</svg>
