<svg width="12" height="12" viewBox="0 0 12 12" fill="none" xmlns="http://www.w3.org/2000/svg">
<path d="M10.242 1.758L9.396 2.604C10.26 3.474 10.8 4.674 10.8 6C10.8 8.652 8.652 10.8 6 10.8C3.348 10.8 1.2 8.652 1.2 6C1.2 3.552 3.03 1.536 5.4 1.242V2.454C3.696 2.742 2.4 4.218 2.4 6C2.4 7.986 4.014 9.6 6 9.6C7.986 9.6 9.6 7.986 9.6 6C9.6 5.004 9.198 4.104 8.544 3.456L7.698 4.302C8.13 4.74 8.4 5.34 8.4 6C8.4 7.326 7.326 8.4 6 8.4C4.674 8.4 3.6 7.326 3.6 6C3.6 4.884 4.368 3.954 5.4 3.684V4.968C5.04 5.178 4.8 5.556 4.8 6C4.8 6.66 5.34 7.2 6 7.2C6.66 7.2 7.2 6.66 7.2 6C7.2 5.556 6.96 5.172 6.6 4.968V0H6C2.688 0 0 2.688 0 6C0 9.312 2.688 12 6 12C9.312 12 12 9.312 12 6C12 4.344 11.328 2.844 10.242 1.758Z" fill="white"/>
</svg>
