<svg width="13" height="8" viewBox="0 0 13 8" fill="none" xmlns="http://www.w3.org/2000/svg">
<path d="M8.86364 3.42857C9.84455 3.42857 10.6305 2.66286 10.6305 1.71429C10.6305 0.765714 9.84455 0 8.86364 0C7.88273 0 7.09091 0.765714 7.09091 1.71429C7.09091 2.66286 7.88273 3.42857 8.86364 3.42857ZM4.13636 3.42857C5.11727 3.42857 5.90318 2.66286 5.90318 1.71429C5.90318 0.765714 5.11727 0 4.13636 0C3.15545 0 2.36364 0.765714 2.36364 1.71429C2.36364 2.66286 3.15545 3.42857 4.13636 3.42857ZM4.13636 4.57143C2.75955 4.57143 0 5.24 0 6.57143V8H8.27273V6.57143C8.27273 5.24 5.51318 4.57143 4.13636 4.57143ZM8.86364 4.57143C8.69227 4.57143 8.49727 4.58286 8.29045 4.6C8.97591 5.08 9.45455 5.72571 9.45455 6.57143V8H13V6.57143C13 5.24 10.2405 4.57143 8.86364 4.57143Z" fill="white"/>
</svg>
